<svg xmlns="http://www.w3.org/2000/svg" viewBox="0 0 135.56 24.21"><title>Asset 1</title><g id="Layer_2" data-name="Layer 2"><g id="Layer_1-2" data-name="Layer 1"><path d="M53.3,13.57c.42,1.18.57,1.29,1.78,1.34.93,0,.93,0,1.51.78l-.53.28c-.24.3.65,1.08,1.67,1.48.51,1.57-.26,3-.43,4.66l-1.88-.71c-.27.31-.77.65-.9,1.09a1.08,1.08,0,0,1-1.45.74c-.74-.66-.83.33-1.13.33-1.35-.58-2.18-1.85-3.73-2.3a9.72,9.72,0,0,0-3.65-4.86,2.63,2.63,0,0,0-2.05-.53c-1.14.11-2.27.3-3.4.48a2.7,2.7,0,0,0-.59.33c.32,1.19.6,2.44,1,3.64.3.88.27,1.31-.6,1.57a16.88,16.88,0,0,1-3.08.67,10.85,10.85,0,0,1-2.67.25,2.32,2.32,0,0,1-1.48-.7c-.85-1.25-1.86-2.51-1.16-4.22a1,1,0,0,0-.07-.53c-.12-.44-.26-.87-.38-1.31-.18-.67-.36-1.35-.58-2.19a2.59,2.59,0,0,0-.19-3.22c.39-.55,1-1.05.54-1.9a1.74,1.74,0,0,1,0-1.08,1.39,1.39,0,0,0-.26-1.43,1.62,1.62,0,0,1-.13-1.87c.76-1.93,2.16-2.59,4.64-2.7,1.3-.06,2.6-.14,3.9-.22a.63.63,0,0,0,.43-.15c.57-.78,1.25-.5,1.78-.08a3,3,0,0,0,1.93.43,23.56,23.56,0,0,0,5.29-.33,5.47,5.47,0,0,1,4.39,1.14c.31.25.71.59,1.05.59A2.56,2.56,0,0,1,55.17,4.5a6.43,6.43,0,0,1,.51,2.23c.13.71.23,1.42.31,2.13a2.32,2.32,0,0,1,0,.9C55.53,11.34,54.89,12.81,53.3,13.57ZM50.05,9.17c-.7-.46-1.19-.84-1.72-1.12a8.08,8.08,0,0,0-2-.84A34.75,34.75,0,0,0,42,6.6,2.78,2.78,0,0,0,40.09,7a2.47,2.47,0,0,1-2.36.54c-.78-.1-1.06.31-.89,1.08a2.91,2.91,0,0,0,2.05,2.52c.61-.07,1.22-.87,1.93-.06.12.13.58,0,.89-.07a8.79,8.79,0,0,1,1.39-.12A13.51,13.51,0,0,0,50.05,9.17Z"/><path d="M2.2,23.17c-.7-1-1.44-2-2.06-3.06-.18-.3.06-.82,0-1.21C-.29,17,.41,15.26,1,13.49a4.36,4.36,0,0,0-.08-3.21A3.37,3.37,0,0,1,.55,7.57C.74,7.09.51,6.44.5,5.86c0-1.08,0-2.16,0-3.38a5.34,5.34,0,0,1,1.36-.26,34.67,34.67,0,0,0,6.29.1c1.9-.19,3.82-.21,5.73-.22A12.69,12.69,0,0,1,16,2.49a7.52,7.52,0,0,1,1.78.3,7.45,7.45,0,0,1,1.88,1.28c1,.87,1.85,1.83,2.78,2.75.47.46,1,.77,1.66.13a3,3,0,0,1,0,1c-.58,1.34.22,2.5.45,3.74a12.46,12.46,0,0,1,.52,1.73c0,1.58.63,3.17-.13,4.75a5.12,5.12,0,0,1-2.14,2.51,12.24,12.24,0,0,1-5.26,1.77,19.82,19.82,0,0,0-3.1.85,40.67,40.67,0,0,1-4.9.93,11.44,11.44,0,0,1-5.2-.8,13.8,13.8,0,0,0-1.82-.43Zm7-15.55A6.47,6.47,0,0,0,9,8.86a10.68,10.68,0,0,1-.08,3.86,1.09,1.09,0,0,0,.2.7c.44.8.91,1.59,1.45,2.54,1.53-.24,3.3.61,4.91-.09.16-1.66.34-3.14.43-4.63,0-.72,0-1.43-1-1.72-1.15-.35-2.24-.88-3.37-1.27C10.86,8,10.12,7.85,9.22,7.62Z"/><path d="M68.86,2.39c1.59-.29,2.93-.61,4.28-.77a4.13,4.13,0,0,1,2.28.21,6.56,6.56,0,0,1,2.33,2c.66,1,1.48,2,1.1,3.46a2.35,2.35,0,0,0,.49,1.61,10.25,10.25,0,0,1,1.77,4.25,1.15,1.15,0,0,0,.41.63A3.94,3.94,0,0,1,82.77,16a10.19,10.19,0,0,0,1.73,3.29,2.39,2.39,0,0,1-1.16,3.84A5.07,5.07,0,0,1,81.2,23c-1.12-.23-2.22-.64-3.37,0-.6-.67-1.45-1-1.43-2.12,0-.86-1.36-1.48-2.31-1.29a3,3,0,0,1-.92.11,3.61,3.61,0,0,0-2.44.22c-.08.25-.16.55-.27.84-.39,1.06-.87,2-2.18,2.15a1.53,1.53,0,0,0-.85.38c-.64.63-1.16.48-1.77-.07a1.33,1.33,0,0,0-1-.23,2.42,2.42,0,0,1-2.75-2.66c.33-1.49.2-3.13,1.21-4.46.18-.24.07-.7.13-1.06a2.66,2.66,0,0,1,1-2,1.73,1.73,0,0,0,.6-.88c.55-1.73,1.11-3.46,1.55-5.22.09-.36,0-.67.43-.86.13-.06.31-.23.3-.33C67,4,68.29,3.3,68.86,2.39Zm3.62,9.12c-.33,1-.68,1.81-.93,2.69a.72.72,0,0,0,.74,1c.87-.19,1.88-.18,2.5-1l-.87-2.26Z"/><path d="M115.05,0c.82,1.4,2.74,1.41,5.05.42,1,.7,2,1.34,3.27.53a.51.51,0,0,1,.44-.05c1,.7,2,.11,2.83-.24a8.19,8.19,0,0,1,4-.41,7,7,0,0,1,4.79,2c.44,1.63-.38,3.14-.69,4.71-.19,1-2.19,1.75-3.56,1.68a23.13,23.13,0,0,0-2.47.1c-.64,0-.93.36-.85,1,.15,1.2.29,2.41.37,3.61,0,.77-.07,1.54,0,2.31s.27,1.54.3,2.32a7.45,7.45,0,0,1-.18,2.45c-.58,1.83-2.19,2.29-3.85,2.37a5.81,5.81,0,0,0-2.89.49,1.12,1.12,0,0,1-1.43-.19,4,4,0,0,1-1.47-2.42,14.93,14.93,0,0,1,.27-4c.06-.82.16-1.65.18-2.47a3.72,3.72,0,0,1,.42-2.36c.34-.49.12-1.42,0-2.13a.87.87,0,0,0-.66-.52,14.38,14.38,0,0,0-3.08.14A2.21,2.21,0,0,1,113,7.48,3.46,3.46,0,0,0,112.68,6,4.07,4.07,0,0,1,112.79,2a4.12,4.12,0,0,1,.82-.89C114,.71,114.5.4,115.05,0Z"/><path d="M105.14,1.18a8.54,8.54,0,0,1,3.95,6.19,3.51,3.51,0,0,1-3.79,1.35,1.43,1.43,0,0,0-1,.21A.86.86,0,0,1,103,8.79c-.16-.14-.55-.26-.68-.17-1.36.92-2.76.21-4.26.2L96.83,10l.2,2c1.47,1,2.81.22,3.88-.36s2.09-1.17,3.15,0c1.4.09,1.59,1.64,2.65,2.1l-.52,2.11a2.9,2.9,0,0,0-1.56,2.43c-2-1.75-4.18-1.65-6.62-1.13.19,1.11.37,2.13.54,3.14a2.92,2.92,0,0,1-.59,2.65,2.25,2.25,0,0,1-2.3.88,4.2,4.2,0,0,0-2.59.08c-1.06.42-2-.3-2.16-1.58-.21-2-.24-3.93-.39-5.9a9.42,9.42,0,0,0-.45-3.33c-.55-1.13-.11-2.18-.3-3.25a26.92,26.92,0,0,1-.11-3.42,4.43,4.43,0,0,0-.26-1.35c-.2-.52-.63-1-.25-1.59A3.07,3.07,0,0,1,91,2.11a15.75,15.75,0,0,1,5-.35,27.87,27.87,0,0,0,6.91-.4A15.49,15.49,0,0,1,105.14,1.18Z"/></g></g></svg>